<?xml version="1.0" standalone="no"?><!DOCTYPE svg PUBLIC "-//W3C//DTD SVG 1.1//EN" "http://www.w3.org/Graphics/SVG/1.1/DTD/svg11.dtd"><svg t="1710381818551" class="icon" viewBox="0 0 1024 1024" version="1.1" xmlns="http://www.w3.org/2000/svg" p-id="7520" xmlns:xlink="http://www.w3.org/1999/xlink" width="64" height="64"><path d="M792.8975 170.3553125c-50.596875-10.4465625-48.4509375-63.2465625-85.8628125-79.9059375a505.41 505.41 0 0 0-169.044375-36.705S440.6075 48.378125 390.1221875 43.0146875C369.3696875 41.0375 332.07124999 32.8503125 332.07124999 32.8503125A58.051875 58.051875 0 0 0 316.45624999 32.285a55.396875 55.396875 0 0 0-47.20968749 46.3059375 405.99375001 405.99375001 0 0 0 1.92 112.0940625 70.1925 70.1925 0 0 1-11.2940625 42.916875 496.3753125 496.3753125 0 0 0-62.7946875 107.01187501C173.4453125 398.778125 323.0075 495.6246875 419.796875 560c88.1784375 60.7059375 81.88125001 199.059375 81.88125 199.059375a660.703125 660.703125 0 0 0-206.765625-167.43562499 365.7590625 365.7590625 0 0 1-168.084375-154.16437501c-3.0778125-5.9296875-6.324375-5.364375-7.14375 1.41187502 0 0-16.1503125 97.6940625 17.3371875 157.83468748 75.585 135.52875001 151.0575 120.564375 209.985 195.67031249a313.4109375 313.4109375 0 0 1 57.853125 176.18718751S300.8159375 817.5059375 153.56843749 748.895c-97.5525-65.5059375-79.6228125-134.4-91.11468748-108.7059375s28.4896875 205.5525 69.7125 237.4584375c85.86374999 66.3525 100.348125 108.705 100.34812499 108.705H419.571875S546.85625001 835.578125 577.124375 740.1415625c47.3221875-148.516875 42.8325-204.140625 42.8325-204.140625a14.1178125 14.1178125 0 0 1 15.9815625-14.116875s49.524375 4.8 71.0109375 10.16437499a267.980625 267.980625 0 0 1 59.01187501 27.95250001 5.8725 5.8725 0 0 0 9.26156249-3.388125l36.70593751-109.5525c1.3828125-4.235625-0.6778125-5.9296875-4.63125001-4.235625a138.5784375 138.5784375 0 0 1-93.9665625 13.27125c-21.4875-6.4940625-63.52875001-16.0940625-79.59468749-35.011875a53.6465625 53.6465625 0 0 1 28.40437499-84.7059375c51.1903125-9.3178125 35.3221875 16.37624999 70.24875 26.54062499 29.22374999 8.47124999 23.746875-1.9753125 28.4615625 5.36531251a232.4325 232.4325 0 0 1 0.395625 35.011875c-0.2259375 6.4940625 3.6140625 8.4703125 8.4703125 3.95249999l44.64-38.96437499c18.5221875-11.859375 32.8940625-0.564375 51.41625-12.42375a138.72 138.72 0 0 0 31.53843749-46.8703125 19.9059375 19.9059375 0 0 0-9.20437499-26.540625l-45.375-22.3059375c-3.9525-1.6940625-3.613125-3.388125 0.79125-3.388125H909.59375001c4.37624999 0 5.3934375-2.540625 2.25937499-5.6475 0 0-68.499375-70.0228125-119.12437499-80.7525z m-217.8065625-18.0703125a4.348125 4.348125 0 0 1 3.55781248-7.340625 236.244375 236.244375 0 0 1 85.32750001 7.05843751c26.540625 8.188125 58.3903125 25.4109375 49.91906251 36.4228125s-10.220625 40.37624999-63.133125 22.02374999a146.484375 146.484375 0 0 1-75.67125-58.164375zM416.975 97.50875001c3.1340625-3.1059375 2.146875-5.6475-2.2875-5.64750002 0 0-62.116875-0.28125001-81.345-0.28124998-31.25625001 0-22.108125 59.8575 4.1784375 59.85749999s79.4540625-53.92874998 79.4540625-53.92874999z m83.7459375 38.96437499s-64.4615625 52.5178125-51.47249999 111.2465625a119.548125 119.548125 0 0 0 63.55687499 73.69406249 60.225 60.225 0 0 1 35.3503125 42.63468752 126.268125 126.268125 0 0 0-43.708125-113.78718752c-35.8584375-35.2940625-3.7546875-113.788125-3.7546875-113.78812499zM357.059375 242.073125c1.12874998-1.9771875 1.60874998-1.6940625 1.2703125 0.564375 0 0-8.075625 20.3296875 24.395625 93.459375 28.884375 65.221875 93.1753125 73.4109375 126.465 105.03375a188.4984375 188.4984375 0 0 1 57.035625 131.859375 214.24875001 214.24875001 0 0 0-91.651875-84.42375001 439.029375 439.029375 0 0 1-136.1784375-91.48218749c-48-48.2821875 18.66375001-155.0109375 18.66375-155.0109375zM499.5340625 992H642.884375s102.1265625-147.388125 49.7503125-311.15156249a244.884375 244.884375 0 0 0-46.30593749-85.27125001c-5.6465625-6.77624999-9.4875-5.364375-9.00656251 3.38906249a618.5203125 618.5203125 0 0 1-20.7253125 207.24562501A512.6953125 512.6953125 0 0 1 499.5621875 992z m193.46718749-4.8h112.17843751A432.309375 432.309375 0 0 0 822.85625001 848a251.716875 251.716875 0 0 0-51.50062501-141.740625c-4.0659375-5.08125001-6.4940625-3.9525-5.6475 2.540625 0 0 17.844375 95.435625-15.44437501 160.3771875-32.9503125 64.37624999-57.375 118.0228125-57.37500001 118.0228125z m200.01843751-155.57624999c-3.0778125-3.1059375-5.1103125-1.97625001-4.659375 2.25937499a191.8303125 191.8303125 0 0 1-8.2725 86.68125 644.13 644.13 0 0 1-30.8325 62.683125h114.24a144 144 0 0 0-21.2053125-89.5059375 310.9546875 310.9546875 0 0 0-49.2703125-62.11781249z m0 0" fill="#e59009" p-id="7521"></path></svg>